<svg xmlns="http://www.w3.org/2000/svg" viewBox="0 0 32 32" fill="none">
  <!-- Left page -->
  <path d="M16 9 C13 7 8 7 5 8.5 L5 25 C8 23.5 13 23.5 16 25.5 Z" fill="#8b5cf6"/>
  <!-- Right page -->
  <path d="M16 9 C19 7 24 7 27 8.5 L27 25 C24 23.5 19 23.5 16 25.5 Z" fill="#7c3aed"/>
  <!-- Spine highlight -->
  <line x1="16" y1="9" x2="16" y2="25.5" stroke="#5b21b6" stroke-width="1.5"/>
  <!-- Left page lines -->
  <line x1="8" y1="13" x2="14" y2="12.2" stroke="white" stroke-width="1.2" stroke-linecap="round" opacity="0.7"/>
  <line x1="8" y1="16.5" x2="14" y2="15.8" stroke="white" stroke-width="1.2" stroke-linecap="round" opacity="0.7"/>
  <line x1="8" y1="20" x2="14" y2="19.4" stroke="white" stroke-width="1.2" stroke-linecap="round" opacity="0.7"/>
  <!-- Right page lines -->
  <line x1="18" y1="12.2" x2="24" y2="13" stroke="white" stroke-width="1.2" stroke-linecap="round" opacity="0.7"/>
  <line x1="18" y1="15.8" x2="24" y2="16.5" stroke="white" stroke-width="1.2" stroke-linecap="round" opacity="0.7"/>
  <line x1="18" y1="19.4" x2="24" y2="20" stroke="white" stroke-width="1.2" stroke-linecap="round" opacity="0.7"/>
</svg>
